<mxfile host="app.diagrams.net" modified="2024-06-17T09:41:56.345Z" agent="Mozilla/5.0 (Windows NT 10.0; Win64; x64; rv:127.0) Gecko/20100101 Firefox/127.0" etag="Ibn-2mWrElinVWejY3xR" version="24.5.4" type="device">
  <diagram name="Page-1" id="TKLl4fkF9nfZFqYcrOOv">
    <mxGraphModel dx="1048" dy="578" grid="1" gridSize="10" guides="1" tooltips="1" connect="1" arrows="1" fold="1" page="1" pageScale="1" pageWidth="827" pageHeight="1169" math="0" shadow="0">
      <root>
        <mxCell id="0" />
        <mxCell id="1" parent="0" />
        <mxCell id="3YaJZZRAZs2XQNdfud5V-1" value="Ship" style="html=1;whiteSpace=wrap;" vertex="1" parent="1">
          <mxGeometry x="220" y="180" width="110" height="50" as="geometry" />
        </mxCell>
        <mxCell id="3YaJZZRAZs2XQNdfud5V-3" value="&lt;font style=&quot;font-size: 40px;&quot;&gt;US Navy&lt;br&gt;&lt;/font&gt;" style="text;html=1;align=center;verticalAlign=middle;resizable=0;points=[];autosize=1;strokeColor=none;fillColor=none;" vertex="1" parent="1">
          <mxGeometry x="324" y="40" width="180" height="60" as="geometry" />
        </mxCell>
        <mxCell id="3YaJZZRAZs2XQNdfud5V-5" value="Sailor" style="html=1;whiteSpace=wrap;" vertex="1" parent="1">
          <mxGeometry x="220" y="460" width="110" height="50" as="geometry" />
        </mxCell>
        <mxCell id="3YaJZZRAZs2XQNdfud5V-6" value="Mission" style="html=1;whiteSpace=wrap;" vertex="1" parent="1">
          <mxGeometry x="510" y="180" width="110" height="50" as="geometry" />
        </mxCell>
        <mxCell id="3YaJZZRAZs2XQNdfud5V-7" value="Base" style="html=1;whiteSpace=wrap;" vertex="1" parent="1">
          <mxGeometry x="510" y="460" width="110" height="50" as="geometry" />
        </mxCell>
        <mxCell id="3YaJZZRAZs2XQNdfud5V-11" value="" style="edgeStyle=entityRelationEdgeStyle;fontSize=12;html=1;endArrow=ERoneToMany;rounded=0;exitX=0;exitY=0.5;exitDx=0;exitDy=0;entryX=1;entryY=0.5;entryDx=0;entryDy=0;" edge="1" parent="1" source="3YaJZZRAZs2XQNdfud5V-7" target="3YaJZZRAZs2XQNdfud5V-5">
          <mxGeometry width="100" height="100" relative="1" as="geometry">
            <mxPoint x="360" y="400" as="sourcePoint" />
            <mxPoint x="460" y="300" as="targetPoint" />
          </mxGeometry>
        </mxCell>
        <mxCell id="3YaJZZRAZs2XQNdfud5V-12" value="" style="edgeStyle=entityRelationEdgeStyle;fontSize=12;html=1;endArrow=ERoneToMany;rounded=0;exitX=0.5;exitY=1;exitDx=0;exitDy=0;entryX=0.5;entryY=0;entryDx=0;entryDy=0;" edge="1" parent="1" source="3YaJZZRAZs2XQNdfud5V-1" target="3YaJZZRAZs2XQNdfud5V-5">
          <mxGeometry width="100" height="100" relative="1" as="geometry">
            <mxPoint x="360" y="400" as="sourcePoint" />
            <mxPoint x="460" y="300" as="targetPoint" />
          </mxGeometry>
        </mxCell>
        <mxCell id="3YaJZZRAZs2XQNdfud5V-13" value="" style="edgeStyle=entityRelationEdgeStyle;fontSize=12;html=1;endArrow=ERoneToMany;rounded=0;exitX=0;exitY=0.5;exitDx=0;exitDy=0;entryX=1;entryY=0.5;entryDx=0;entryDy=0;" edge="1" parent="1" source="3YaJZZRAZs2XQNdfud5V-6" target="3YaJZZRAZs2XQNdfud5V-1">
          <mxGeometry width="100" height="100" relative="1" as="geometry">
            <mxPoint x="360" y="400" as="sourcePoint" />
            <mxPoint x="460" y="300" as="targetPoint" />
          </mxGeometry>
        </mxCell>
      </root>
    </mxGraphModel>
  </diagram>
</mxfile>
